<svg xmlns="http://www.w3.org/2000/svg" width="12" height="14" viewBox="0 0 12 14">
  <g id="download" transform="translate(-1514 -609)">
    <g id="Group_14199" data-name="Group 14199" transform="translate(1514 609)">
      <path id="Path_21577" data-name="Path 21577" d="M-205.91,329.433a.467.467,0,0,0,.087.089l3.472,3.028a.723.723,0,0,0,.243.142.842.842,0,0,0,.567,0,.68.68,0,0,0,.234-.136l3.472-3.026a.509.509,0,0,0,.095-.7.444.444,0,0,0-.087-.09.824.824,0,0,0-1.054,0l-2.23,1.95v-8.32a.742.742,0,0,0-.282-.455.711.711,0,0,0-.538-.139.734.734,0,0,0-.609.631l0,8.281-2.237-1.951a.817.817,0,0,0-.518-.186.835.835,0,0,0-.528.191A.508.508,0,0,0-205.91,329.433Z" transform="translate(207.788 -321.765)" fill="#089df2"/>
      <path id="Path_21578" data-name="Path 21578" d="M-196.422,334.883h-10.732a.642.642,0,0,0-.634.65.642.642,0,0,0,.634.65h10.732a.642.642,0,0,0,.634-.65A.642.642,0,0,0-196.422,334.883Z" transform="translate(207.788 -322.183)" fill="#089df2"/>
    </g>
  </g>
</svg>
