<svg xmlns="http://www.w3.org/2000/svg" width="17.601" height="19.599" viewBox="0 0 17.601 19.599">
  <g id="user_search" transform="translate(-45 -398)">
    <g id="Group_14198" data-name="Group 14198" transform="translate(103.73 399.101)">
      <path id="Path_21575" data-name="Path 21575" d="M-45.93,10.9h-8a4.813,4.813,0,0,0-4.8,4.8v2a.8.8,0,0,0,.8.8.8.8,0,0,0,.8-.8v-2a3.2,3.2,0,0,1,3.2-3.2h8a3.2,3.2,0,0,1,3.2,3.2v2a.8.8,0,0,0,.8.8.8.8,0,0,0,.8-.8v-2A4.813,4.813,0,0,0-45.93,10.9Z" fill="#a9b3c8"/>
      <path id="Path_21576" data-name="Path 21576" d="M-54.73,3.7a4.8,4.8,0,0,0,4.8,4.8,4.813,4.813,0,0,0,4.8-4.8,4.8,4.8,0,0,0-4.8-4.8A4.805,4.805,0,0,0-54.73,3.7Zm4.8-3.2a3.2,3.2,0,0,1,3.2,3.2,3.2,3.2,0,0,1-3.2,3.2,3.2,3.2,0,0,1-3.2-3.2A3.2,3.2,0,0,1-49.93.5Z" fill="#a9b3c8"/>
    </g>
  </g>
</svg>
