<svg xmlns="http://www.w3.org/2000/svg" width="20" height="16" viewBox="0 0 20 16">
  <path id="message" d="M-45.2,2.252H-60.113a2.531,2.531,0,0,0-2.541,2.482v11.02a2.525,2.525,0,0,0,2.541,2.5H-45.2a2.528,2.528,0,0,0,2.542-2.5v-11A2.53,2.53,0,0,0-45.2,2.252ZM-61.176,4.228a1.184,1.184,0,0,1,1.061-.643h14.922a1.185,1.185,0,0,1,1.062.643l.1.195-8.622,5.935-8.623-5.935Zm17.169,11.527A1.184,1.184,0,0,1-45.2,16.924H-60.113A1.182,1.182,0,0,1-61.3,15.755V6.027l8.261,5.687a.689.689,0,0,0,.775,0l8.259-5.686Z" transform="translate(62.654 -2.252)" fill="#a9b3c8"/>
</svg>
