<svg xmlns="http://www.w3.org/2000/svg" width="18" height="20.068" viewBox="0 0 18 20.068">
  <path id="notification" d="M-80.249,48.539l-.091-.09V43.7a6.784,6.784,0,0,0-5.751-6.808,6.714,6.714,0,0,0-.876-.058,6.633,6.633,0,0,0-4.379,1.647,6.651,6.651,0,0,0-2.276,5v4.968l-.09.09-1.863,1.866a1.379,1.379,0,0,0-.3,1.505,1.381,1.381,0,0,0,1.278.855h3.789v.662A3.669,3.669,0,0,0-86.982,56.9a3.669,3.669,0,0,0,3.829-3.475v-.662h3.788a1.376,1.376,0,0,0,1.276-.853,1.375,1.375,0,0,0-.3-1.506ZM-84.6,53.076v.352a2.256,2.256,0,0,1-2.38,2.028,2.255,2.255,0,0,1-2.379-2.028v-.662h4.76Zm4.327-1.76H-94.439l.529-.53,1.221-1.223a1.747,1.747,0,0,0,.515-1.243V43.482a5.2,5.2,0,0,1,1.782-3.911,5.094,5.094,0,0,1,3.4-1.289,5.5,5.5,0,0,1,.709.047A5.334,5.334,0,0,1-81.787,43.7v4.62a1.746,1.746,0,0,0,.514,1.243l1.219,1.223.528.53Z" transform="translate(95.982 -36.834)" fill="#a9b3c8"/>
</svg>
