<?xml version="1.0" encoding="utf-8"?>
<!-- Generator: Adobe Illustrator 23.0.5, SVG Export Plug-In . SVG Version: 6.00 Build 0)  -->
<svg version="1.1" id="Layer_1" xmlns="http://www.w3.org/2000/svg" xmlns:xlink="http://www.w3.org/1999/xlink" x="0px" y="0px"
	 viewBox="0 0 500 500" style="enable-background:new 0 0 500 500;" xml:space="preserve">
<style type="text/css">
	.st0{fill:#FFFFFF;}
</style>
<path class="st0" d="M412.1,100c0-24.2-19.7-44-44-44H44C19.7,56,0,75.7,0,100v8.8h412.1V100z M411.1,266.3
	c-49,0-88.9,39.9-88.9,88.9s39.9,88.9,88.9,88.9s88.9-39.9,88.9-88.9S460.1,266.3,411.1,266.3z M453.7,347.6l-35.2,35.2
	c-2.9,2.9-6.6,4.3-10.4,4.3s-7.5-1.4-10.4-4.3l-18.1-18.1c-5.7-5.7-5.7-15,0-20.7s15-5.7,20.7,0l7.7,7.7l24.8-24.8
	c5.7-5.7,15-5.7,20.7,0S459.4,341.9,453.7,347.6L453.7,347.6z M0,138h412.1v29.3H0V138z M411.1,237c0.3,0,0.6,0,1,0v-40.3H0v120.1
	c0,24.2,19.7,44,44,44h249.2c-0.1-1.9-0.1-3.7-0.1-5.6C293,290,346,237,411.1,237L411.1,237z M73.2,225.9h36.6
	c8.1,0,14.7,6.6,14.7,14.6s-6.6,14.6-14.7,14.6H73.2c-8.1,0-14.7-6.6-14.7-14.6C58.6,232.5,65.2,225.9,73.2,225.9L73.2,225.9z
	 M156.3,302.1h-83c-8.1,0-14.7-6.6-14.7-14.6s6.6-14.6,14.7-14.6h83c8.1,0,14.6,6.6,14.6,14.6S164.3,302.1,156.3,302.1z"/>
</svg>
