<?xml version="1.0" encoding="utf-8"?>
<!-- Generator: Adobe Illustrator 23.0.5, SVG Export Plug-In . SVG Version: 6.00 Build 0)  -->
<svg version="1.1" id="Layer_1" xmlns="http://www.w3.org/2000/svg" xmlns:xlink="http://www.w3.org/1999/xlink" x="0px" y="0px"
	 viewBox="0 0 500 500" style="enable-background:new 0 0 500 500;" xml:space="preserve">
<style type="text/css">
	.st0{fill:#FFFFFF;}
</style>
<path class="st0" d="M382.4,245.1c0,0-0.1,0-0.2-0.1c-12.9-3.1-52.2-8.6-52.2-8.6c-4.4-1.4-9.2,1-10.8,5.4L260,404.3
	c-3.4,9.4-16.7,9.4-20.1,0l-59.2-162.5c-1.3-3.5-4.6-5.8-8.2-5.8c-0.9,0-41.3,5.7-54.8,9c-36.8,9.1-60,45.3-60,83.1v135.2
	c0,20.3,16.4,36.7,36.7,36.7h311.1c20.3,0,36.7-16.4,36.7-36.7V327.7C442.2,290.1,418.1,256.8,382.4,245.1L382.4,245.1z
	 M272.4,233.4c-2.4-2.6-5.8-3.9-9.3-3.9H237c-3.5,0-6.9,1.3-9.3,3.9c-3.7,4-4.2,9.8-1.6,14.3l13.9,21l-6.5,55l12.9,34.2
	c1.3,3.4,6.1,3.4,7.4,0l12.8-34.2l-6.5-55l13.9-21C276.5,243.1,276,237.3,272.4,233.4z M250,197.3c54.4,0,98.7-44.3,98.7-98.7
	S304.4,0,250,0s-98.7,44.3-98.7,98.7S195.6,197.3,250,197.3z"/>
</svg>
