<?xml version="1.0" encoding="utf-8"?>
<!-- Generator: Adobe Illustrator 23.0.5, SVG Export Plug-In . SVG Version: 6.00 Build 0)  -->
<svg version="1.1" id="Layer_1" xmlns="http://www.w3.org/2000/svg" xmlns:xlink="http://www.w3.org/1999/xlink" x="0px" y="0px"
	 viewBox="0 0 500 500" style="enable-background:new 0 0 500 500;" xml:space="preserve">
<style type="text/css">
	.st0{fill:#FFFFFF;}
</style>
<path class="st0" d="M427.8,266.9h-38.7c3.9,10.8,6.1,22.4,6.1,34.6v146.1c0,5.1-0.9,9.9-2.5,14.4h63.9c23.9,0,43.3-19.4,43.3-43.3
	v-79.7C500,299.3,467.6,266.9,427.8,266.9z M104.8,301.5c0-12.1,2.2-23.8,6.1-34.6H72.2C32.4,266.9,0,299.3,0,339.1v79.7
	c0,23.9,19.4,43.3,43.3,43.3h63.9c-1.6-4.5-2.5-9.4-2.5-14.4L104.8,301.5L104.8,301.5z M294.2,229.3h-88.4
	c-39.8,0-72.2,32.4-72.2,72.2v146.1c0,8,6.5,14.4,14.4,14.4H352c8,0,14.4-6.5,14.4-14.4V301.5C366.4,261.7,334,229.3,294.2,229.3z
	 M250,37.9c-47.9,0-86.8,38.9-86.8,86.8c0,32.5,17.9,60.8,44.4,75.7c12.6,7.1,27,11.1,42.4,11.1s29.9-4,42.4-11.1
	c26.5-14.9,44.4-43.2,44.4-75.7C336.8,76.9,297.9,37.9,250,37.9z M97.6,118.8c-35.8,0-64.9,29.1-64.9,64.9s29.1,64.9,64.9,64.9
	c9.1,0,17.7-1.9,25.6-5.3c13.6-5.9,24.8-16.2,31.7-29.2c4.9-9.1,7.6-19.5,7.6-30.5C162.5,148,133.4,118.8,97.6,118.8z M402.4,118.8
	c-35.8,0-64.9,29.1-64.9,64.9c0,11,2.8,21.4,7.6,30.5c6.9,13,18.1,23.3,31.7,29.2c7.9,3.4,16.5,5.3,25.6,5.3
	c35.8,0,64.9-29.1,64.9-64.9S438.2,118.8,402.4,118.8z"/>
</svg>
